<svg xmlns="http://www.w3.org/2000/svg" xmlns:xlink="http://www.w3.org/1999/xlink" viewBox="0 0 103.35 100.72"><defs><linearGradient id="A" x1="-11.401" y1="-31.425" x2="110.722" y2="55.109" gradientUnits="userSpaceOnUse"><stop offset="0" stop-color="#c06fbb"/><stop offset="1" stop-color="#6e4d9b"/></linearGradient><linearGradient id="B" x1="82.852" y1="88.636" x2="16.806" y2="17.728" gradientUnits="userSpaceOnUse"><stop offset="0" stop-color="#6e4d9b"/><stop offset=".14" stop-color="#77327a"/><stop offset=".29" stop-color="#b31777"/><stop offset=".84" stop-color="#cd0f7e"/><stop offset="1" stop-color="#ed2c89"/></linearGradient><linearGradient id="C" x1="-39.776" y1="-59.155" x2="63.417" y2="125.227" xlink:href="#A"/><linearGradient id="D" x1="-36.835" y1="-42.484" x2="111.06" y2="78.205" xlink:href="#A"/><linearGradient id="E" x1="-42.252" y1="-8.726" x2="96.4" y2="113.514" xlink:href="#A"/><linearGradient id="F" x1="89.952" y1="88.623" x2="24.001" y2="16.892" xlink:href="#B"/><linearGradient id="G" x1="-4.323" y1="-37.072" x2="117.8" y2="67.563" xlink:href="#A"/><linearGradient id="H" x1="11.753" y1="103.465" x2="93.401" y2=".822" gradientUnits="userSpaceOnUse"><stop offset="0" stop-color="#6e4d9b"/><stop offset=".14" stop-color="#77327a"/><stop offset=".53" stop-color="#b31777"/><stop offset=".79" stop-color="#cd0f7e"/><stop offset="1" stop-color="#ed2c89"/></linearGradient></defs><g transform="translate(-1.66 -2.02)"><path d="M69.34 20.67l-9.6 6.4-9.88-14.8 9.6-6.4 9.88 14.8z" fill="url(#A)"/><path d="M77.14 65.16l16.38 24.56L74 102.75 54.75 73.9l19.53-13 2.86 4.28z" fill="url(#B)"/><path d="M52.55 81.57l3.6 5.43-14.86 9.9-6.47-9.7 3.25-2.2 11.6-7.75 2.86 4.3z" fill="url(#C)"/><path d="M85.25 53.55l4.17-2.78 6.47 9.7-9.6 6.4-3.6-5.4 5.42-3.62-2.86-4.28zm-2.56 7.9l-2.86-4.28 5.42-3.62 2.86 4.28-5.42 3.62z" fill="url(#D)"/><path d="M18 54.94l-3.24 2.17-9.9-14.8 14.86-9.92 6.93 10.38L15 50.5l11.6-7.75 3 4.43L18 54.94z" fill="url(#E)"/><path d="M54.2 30.78l-19.52 13-3-4.43-16.2-24.3L35 2l16.24 24.35z" fill="url(#F)"/><path d="M65.17 23.46l-5.42 3.62-3-4.43-6.88-10.38 9.6-6.4 9.88 14.8-4.17 2.8z" fill="url(#G)"/></g><path d="M39.27 87.3l-2.85-4.32 11.6-7.75 2.86 4.3-11.62 7.78z" fill="#714896"/><path d="M81.03 59.43l-2.86-4.28 5.42-3.62 2.86 4.28-5.42 3.62z" fill="#6f4795"/><path d="M16.34 52.92l-3-4.43 11.6-7.75 3 4.43-11.6 7.75z" fill="#88519f"/><path d="M58.1 25.06l-3-4.43 5.47-3.65 3 4.43-5.42 3.62z" fill="#85509e"/><path d="M75.48 63.14l-19.53 13-2.86-4.26 19.53-13 2.86 4.28z" fill="#8d166a"/><path d="M49.58 24.33l2.95 4.43-19.52 13-3-4.43 19.52-13z" fill="#a70d6f"/><path d="M10.8 20.8l3.68 5.53-5.52 3.66-3.7-5.5 5.53-3.7z" fill="#9e61ad"/><path d="M30.7 86.98l3.65 5.53-5.52 3.7-3.7-5.53 5.56-3.7z" fill="#8053a3"/><path d="M17.83 94.57L1.66 70.15l86.4-57.8 17 24-87.23 58.2z" transform="translate(-1.66 -2.02)" fill="url(#H)"/></svg>