<svg xmlns="http://www.w3.org/2000/svg" viewBox="0 0 111.74 100.46"><path d="M0 50.05c0 8.43 8.24 16.3 21.24 20.75-2.6 13.06-.47 23.6 6.64 27.7 7.3 4.22 18.2 1.3 28.54-7.74 10.08 8.67 20.26 12.08 27.36 8 7.3-4.23 9.53-15.47 6.86-28.93 13.53-4.48 21.1-11.2 21.1-19.74 0-8.25-8.25-15.38-21.07-19.8 2.87-14 .44-24.3-7-28.57-7.1-4.14-17.43-.55-27.63 8.34C45.4.62 35.24-2.26 27.8 2.02c-7.13 4.13-9.17 14.84-6.56 28.15C8.68 34.54 0 41.86 0 50.05z" fill="#fff"/><path d="M87.96 34.64l-3.2-1 .5-2.17c2.4-11.74.83-21.2-4.57-24.3-5.17-3-13.64.13-22.2 7.57-.82.7-1.65 1.47-2.47 2.26l-1.64-1.5c-9-8-17.95-11.3-23.34-8.2-5.17 3-6.7 11.88-4.53 23a63.36 63.36 0 0 0 .74 3.28c-1.27.36-2.5.75-3.68 1.16-10.5 3.66-17.2 9.4-17.2 15.36 0 6.15 7.2 12.3 18.14 16.05a47.22 47.22 0 0 0 2.69.84 65.33 65.33 0 0 0-.78 3.55c-2.08 10.93-.46 19.6 4.7 22.58 5.33 3.07 14.27-.08 23-7.7a59.97 59.97 0 0 0 2.07-1.91 59.22 59.22 0 0 0 2.68 2.44c8.37 7.26 16.74 10.2 21.9 7.2 5.32-3.08 7-12.4 4.8-23.75-.17-.87-.37-1.75-.6-2.65l1.84-.58c11.38-3.77 18.78-9.86 18.78-16.1 0-6-6.92-11.76-17.64-15.45z" fill="#53c1de"/><path d="M85.5 62.16l-1.67.52a98.39 98.39 0 0 0-5-12.57 99.6 99.6 0 0 0 4.83-12.39l3 .93c9.18 3.16 14.78 7.83 14.78 11.44 0 3.83-6.05 8.8-15.87 12.07zm-4.08 8.07a35.72 35.72 0 0 1 .48 13.1c-.6 3.2-1.78 5.3-3.25 6.16-3.12 1.8-9.8-.54-17-6.75-.82-.7-1.65-1.47-2.5-2.27a99.6 99.6 0 0 0 8.29-10.61 98 98 0 0 0 13.44-2 50.09 50.09 0 0 1 .53 2.4zM40.24 89.18c-3.06 1.08-5.5 1.1-7 .26-3.13-1.8-4.43-8.78-2.66-18.12.2-1.07.45-2.17.73-3.3a99.32 99.32 0 0 0 13.37 1.94 103.82 103.82 0 0 0 8.56 10.52q-1 .9-1.9 1.74a35.84 35.84 0 0 1-11.11 7zm-14.32-27a35.82 35.82 0 0 1-11.57-6.15c-2.46-2.1-3.7-4.2-3.7-5.9 0-3.62 5.38-8.23 14.37-11.36 1.1-.38 2.23-.74 3.4-1.07a103.83 103.83 0 0 0 4.81 12.48 104 104 0 0 0-4.91 12.67c-.84-.24-1.66-.5-2.45-.77zm4.8-32.66C28.86 20 30.1 12.8 33.2 11c3.32-1.92 10.66.82 18.4 7.7.5.43 1 .9 1.5 1.37a102.28 102.28 0 0 0-8.45 10.46 103.36 103.36 0 0 0-13.25 2.06c-.25-1-.48-2.06-.68-3.06zM73.5 40.04l-3-5c3.17.4 6.2.93 9 1.58a90.88 90.88 0 0 1-3.18 8.55c-.9-1.7-1.85-3.44-2.85-5.17zm-17.46-17a87.88 87.88 0 0 1 5.84 7q-2.9-.13-5.9-.14c-2 0-3.9 0-5.84.14 1.93-2.55 3.9-4.9 5.9-7zm-17.57 17c-1 1.7-1.9 3.42-2.8 5.13-1.23-2.93-2.3-5.8-3.15-8.58 2.83-.64 5.85-1.16 9-1.55a130.43 130.43 0 0 0-3.05 5zm3.14 25.33a88.52 88.52 0 0 1-9.15-1.47c.88-2.83 2-5.77 3.22-8.76a123.62 123.62 0 0 0 2.81 5.14q1.5 2.6 3.12 5.1zm14.55 12c-2-2.17-4-4.56-6-7.14 1.9.07 3.84.1 5.8.1a151.76 151.76 0 0 0 6-.13 91.37 91.37 0 0 1-5.82 7.16zm20.23-22.35a86.87 86.87 0 0 1 3.33 8.73 90.69 90.69 0 0 1-9.25 1.58l3-5c1-1.68 2-3.5 2.88-5.26zm-6.55 3.14c-1.6 2.7-3.14 5.26-4.76 7.7a128.2 128.2 0 0 1-9.09.32 145.69 145.69 0 0 1-9-.28c-1.68-2.46-3.3-5-4.85-7.7a114.16 114.16 0 0 1-4.23-8c1.28-2.67 2.7-5.35 4.22-8q2.3-4 4.8-7.66c2.95-.22 6-.34 9-.34a121.96 121.96 0 0 1 9.06.34c1.64 2.42 3.24 5 4.78 7.64s3 5.35 4.28 8c-1.3 2.65-2.72 5.34-4.27 8zm8.75-47.3c3.32 1.92 4.6 9.65 2.52 19.78l-.44 2a101.84 101.84 0 0 0-13.27-2.09A98.2 98.2 0 0 0 59 20.08c.76-.74 1.53-1.43 2.28-2.1 7.33-6.37 14.18-8.9 17.3-7.1z" fill="#fff"/><path d="M55.98 41.22a8.87 8.87 0 0 1 6.286 15.138A8.87 8.87 0 0 1 47.12 50.09a8.87 8.87 0 0 1 8.86-8.87" fill="#53c1de"/></svg>