<svg xmlns="http://www.w3.org/2000/svg" viewBox="0 0 103 124"><path d="M96.33 20.6C85.38 4.93 63.74.28 48.1 10.25L20.6 27.77A31.46 31.46 0 0 0 6.37 48.88 33.22 33.22 0 0 0 9.64 70.2 31.52 31.52 0 0 0 4.93 82a33.61 33.61 0 0 0 5.73 25.41c11 15.68 32.6 20.33 48.25 10.36l27.48-17.52a31.48 31.48 0 0 0 14.24-21.11 33.22 33.22 0 0 0-3.27-21.34 31.52 31.52 0 0 0 4.71-11.8 33.57 33.57 0 0 0-5.74-25.41" fill="#ff3e00"/><path d="M45.4 108.86A21.81 21.81 0 0 1 22 100.18a20.2 20.2 0 0 1-3.47-15.28 19 19 0 0 1 .65-2.57l.52-1.58 1.4 1a35.32 35.32 0 0 0 10.75 5.37l1 .3-.1 1a6.2 6.2 0 0 0 1.11 4.08A6.57 6.57 0 0 0 41 95.19a6 6 0 0 0 1.68-.74l27.43-17.5a5.76 5.76 0 0 0 2.59-3.83 6.09 6.09 0 0 0-1-4.6 6.58 6.58 0 0 0-7.06-2.62 6.21 6.21 0 0 0-1.69.74L52.43 73.3a19.88 19.88 0 0 1-5.58 2.45 21.82 21.82 0 0 1-23.43-8.68A20.2 20.2 0 0 1 20 51.8a19 19 0 0 1 8.56-12.7L56 21.6a19.88 19.88 0 0 1 5.58-2.45A21.81 21.81 0 0 1 85 27.82a20.2 20.2 0 0 1 3.47 15.28 19 19 0 0 1-.65 2.57l-.52 1.58-1.4-1a35.32 35.32 0 0 0-10.75-5.37l-1-.3.1-1a6.2 6.2 0 0 0-1.11-4.08 6.57 6.57 0 0 0-7.06-2.62 6 6 0 0 0-1.68.74L36.9 51.06a5.71 5.71 0 0 0-2.58 3.83 6 6 0 0 0 1 4.6 6.58 6.58 0 0 0 7.06 2.62 6.21 6.21 0 0 0 1.69-.74l10.48-6.68a19.88 19.88 0 0 1 5.58-2.45 21.82 21.82 0 0 1 23.43 8.68A20.2 20.2 0 0 1 87 76.2a19 19 0 0 1-8.56 12.7L51 106.4a19.88 19.88 0 0 1-5.58 2.45" fill="#fff"/></svg>